<svg width="398" height="50" viewBox="0 0 398 50" fill="none" xmlns="http://www.w3.org/2000/svg">
<path d="M0.834 50V3.92H11.074L26.69 22.544L42.242 3.92H52.546V50H42.562V19.088L26.69 38.032L10.754 19.152V50H0.834ZM59.953 50V12.88H69.745V50H59.953ZM59.953 10.576V0.719997H69.745V10.576H59.953ZM84.419 50C81.9017 50 79.7257 49.0827 77.891 47.248C76.0563 45.4133 75.139 43.2373 75.139 40.72V22.16C75.139 19.6427 76.0563 17.4667 77.891 15.632C79.7257 13.7973 81.9017 12.88 84.419 12.88H112.707V22.672H87.043C85.635 22.672 84.931 22.672 84.931 22.672C84.931 22.672 84.931 23.376 84.931 24.784V38.096C84.931 39.504 84.931 40.208 84.931 40.208C84.931 40.208 85.635 40.208 87.043 40.208H112.771V50H84.419ZM119.078 50V22.16C119.078 19.6427 119.995 17.4667 121.83 15.632C123.665 13.7973 125.862 12.88 128.422 12.88H148.902V22.672H130.982C129.574 22.672 128.87 22.672 128.87 22.672C128.87 22.672 128.87 23.376 128.87 24.784V50H119.078ZM162.294 50C159.777 50 157.601 49.0827 155.766 47.248C153.931 45.4133 153.014 43.2373 153.014 40.72V22.16C153.014 19.6427 153.931 17.4667 155.766 15.632C157.601 13.7973 159.777 12.88 162.294 12.88H181.366C183.926 12.88 186.102 13.7973 187.894 15.632C189.729 17.4667 190.646 19.6427 190.646 22.16V40.72C190.646 43.2373 189.729 45.4133 187.894 47.248C186.102 49.0827 183.926 50 181.366 50H162.294ZM164.918 40.208H178.742C180.15 40.208 180.854 40.208 180.854 40.208C180.854 40.208 180.854 39.504 180.854 38.096V24.784C180.854 23.376 180.854 22.672 180.854 22.672C180.854 22.672 180.15 22.672 178.742 22.672H164.918C163.51 22.672 162.806 22.672 162.806 22.672C162.806 22.672 162.806 23.376 162.806 24.784V38.096C162.806 39.504 162.806 40.208 162.806 40.208C162.806 40.208 163.51 40.208 164.918 40.208ZM218.464 50V3.92H253.28C255.84 3.92 258.058 4.85866 259.936 6.736C261.813 8.57066 262.752 10.7893 262.752 13.392V22.032C262.752 22.5867 262.709 23.12 262.624 23.632C262.581 24.1013 262.474 24.5493 262.304 24.976C262.944 25.7867 263.477 26.7253 263.904 27.792C264.33 28.8587 264.544 29.9253 264.544 30.992V40.528C264.544 43.1307 263.605 45.3707 261.728 47.248C259.85 49.0827 257.61 50 255.008 50H218.464ZM230.496 40.016H252.384C253.792 40.016 254.496 40.016 254.496 40.016C254.496 40.016 254.496 39.312 254.496 37.904V33.68C254.496 32.272 254.496 31.568 254.496 31.568C254.496 31.568 253.792 31.568 252.384 31.568H230.496C229.088 31.568 228.384 31.568 228.384 31.568C228.384 31.568 228.384 32.272 228.384 33.68V37.904C228.384 39.312 228.384 40.016 228.384 40.016C228.384 40.016 229.088 40.016 230.496 40.016ZM230.496 21.584H250.592C252 21.584 252.704 21.584 252.704 21.584C252.704 21.584 252.704 20.88 252.704 19.472V16.016C252.704 14.608 252.704 13.904 252.704 13.904C252.704 13.904 252 13.904 250.592 13.904H230.496C229.088 13.904 228.384 13.904 228.384 13.904C228.384 13.904 228.384 14.608 228.384 16.016V19.472C228.384 20.88 228.384 21.584 228.384 21.584C228.384 21.584 229.088 21.584 230.496 21.584ZM280.546 50C277.986 50 275.788 49.0827 273.954 47.248C272.162 45.4133 271.266 43.2373 271.266 40.72V26.512H299.106V24.784C299.106 23.376 299.106 22.672 299.106 22.672C299.106 22.672 298.402 22.672 296.994 22.672H271.266V12.88H299.618C302.178 12.88 304.354 13.7973 306.146 15.632C307.98 17.4667 308.898 19.6427 308.898 22.16V50H280.546ZM283.17 40.208H299.106V35.088H281.058V38.096C281.058 39.504 281.058 40.208 281.058 40.208C281.058 40.208 281.762 40.208 283.17 40.208ZM315.269 50V12.88H343.621C346.181 12.88 348.357 13.7973 350.149 15.632C351.983 17.4667 352.901 19.6427 352.901 22.16V50H343.109V24.784C343.109 23.376 343.109 22.672 343.109 22.672C343.109 22.672 342.405 22.672 340.997 22.672H327.173C325.765 22.672 325.061 22.672 325.061 22.672C325.061 22.672 325.061 23.376 325.061 24.784V50H315.269ZM359.831 50V0.719997H369.623V26.512H374.615L387.223 12.88H397.079V16.208L383.255 31.44L397.079 46.672V50H387.223L374.615 36.368H369.623V50H359.831Z" fill="white"/>
</svg>
