<svg width="48" height="46" viewBox="0 0 48 46" fill="none" xmlns="http://www.w3.org/2000/svg">
<path d="M45.5 38V40.5C45.5 43.25 43.25 45.5 40.5 45.5H5.5C2.725 45.5 0.5 43.25 0.5 40.5V5.5C0.5 2.75 2.725 0.5 5.5 0.5H40.5C43.25 0.5 45.5 2.75 45.5 5.5V8H23C20.225 8 18 10.25 18 13V33C18 35.75 20.225 38 23 38H45.5ZM23 33H48V13H23V33ZM33 26.75C30.925 26.75 29.25 25.075 29.25 23C29.25 20.925 30.925 19.25 33 19.25C35.075 19.25 36.75 20.925 36.75 23C36.75 25.075 35.075 26.75 33 26.75Z" fill="#D90429"/>
</svg>
